# xmcd
#
# Track frame offsets: 
#        150
#        21283
#        33260
#        46533
#        62675
#        72808
#        84753
#        94575
#        105293
#        119503
#        137420
#        156138
#        169088
#        181185
#        194520
#
# Disc length: 2612 seconds
#
# Revision: 0
# Processed by: cddbd v1.5.2PL0 Copyright (c) Steve Scherf et al.
# Submitted via: ExactAudioCopy v0.95b4
#
DISCID=b00a320f
DTITLE=James Reams - Kentucky Songbird
DYEAR=1994
DGENRE=Country
TTITLE0=Standing At the Bedside
TTITLE1=Turkey Buzzard
TTITLE2=Ballad of a Few Days
TTITLE3=Bush and Tree
TTITLE4=Can't Exchange It
TTITLE5=Salvations Plan
TTITLE6=Dry and Dusty
TTITLE7=Daisy Dean
TTITLE8=Joy Joy Joy
TTITLE9=Renfro Valley Home
TTITLE10=Silvery Colorado
TTITLE11=You Married My Daughter But Didn't
TTITLE12=Little Joe
TTITLE13=Winnsboro Cotton Mill Blues
TTITLE14=Leghorn Stomp
EXTD=
EXTT0=
EXTT1=
EXTT2=
EXTT3=
EXTT4=
EXTT5=
EXTT6=
EXTT7=
EXTT8=
EXTT9=
EXTT10=
EXTT11=
EXTT12=
EXTT13=
EXTT14=
PLAYORDER=
